<?xml version="1.0" encoding="utf-8"?>
<!-- Generator: Adobe Illustrator 19.0.0, SVG Export Plug-In . SVG Version: 6.00 Build 0)  -->
<svg version="1.1" id="Layer_1" xmlns="http://www.w3.org/2000/svg" xmlns:xlink="http://www.w3.org/1999/xlink" x="0px" y="0px"
	 viewBox="0 0 261.1 383.4" style="enable-background:new 0 0 261.1 383.4;" xml:space="preserve">
<g>
	<path d="M236.7,309.7c7.7-10.3,12.8-21.9,14.8-34.4c3.2-20.3,4.3-40.8-3.7-60.5c-0.9-2.3-0.6-3.9,1.8-5.3c4-2.4,7.8-5.4,11.5-7.9
		c-4.4-14-11.7-25.7-22.1-34.9c-13.8-12.2-31.1-18.4-48.3-23.8c-20.4-6.5-41.2-11.5-61.6-18.1c-10-3.2-17.1-10.2-18.7-21.3
		c-1.6-10.6,2.8-18.7,11-25.2c7.3-5.8,16-8.2,25-8.8c19.9-1.3,38.1,4,55.1,14.2c5.5,3.3,10.8,6.8,16.6,10.4
		c5.3-11.8,10.5-23.4,15.8-35c4.2-9.2,8.3-18.4,12.5-27.6c1.8-3.9,2-7.1-3-9c-10.5-4.1-20.6-9.2-31.2-12.8
		C185,0.3,157.1-2.1,128.8,1.8c-13.9,1.9-27.5,4.9-40.1,11.2c-8.3,4.1-16.3,8.9-23.7,14.4c-11.3,8.3-20.5,18.7-27.8,30.8
		c-0.5,0.8-0.4,2.6,0.2,3.5c6.3,9.8,12.7,19.4,19,29.1c2,3.2,3.2,6.4,1.6,10.6c-2.7,6.9-4.6,14.1-7,21.7c-9.6-2.4-19.5-4.8-29.8-7.4
		c0,0-1.5,21.1,0.1,31.9c2.4,16.5,7.6,29.1,18.2,40.8c0.1,0.1,0.2,0.2,0.3,0.3c7.2,7.9,15.6,14,25.1,18.3
		c12.7,5.7,25.6,10.9,38.7,15.6c13.8,5,28,9.1,42.5,13.8c1.7-2,1.5-4.6-0.8-7.6c-2.8-3.7-5.1-7.7-7.6-11.6
		c-6.4-10-12.8-20.1-19.2-30.1c-4.6-7.3-9.3-14.5-14.4-22.4c9.4,4.2,17.8,8.6,26.6,11.8c8.8,3.2,18.1,5.3,27.5,7.9
		c-2.8,10-5.3,20-8.6,29.7c-1.7,5.1,0.5,6.7,4.5,8.5c12,5.3,18.5,14.6,19,27.9c0.1,2.6,0,5.2,0,8.1c2.3-0.6,4-1.1,5.7-1.6
		c1.5,8.9-0.4,16.8-6.6,22.9c-11.3,11.2-25.3,13.7-40.9,10.8c-1.5,4.6-3.1,8.7-4.1,13.1c-0.7,3-2.1,3.7-4.8,3.6
		c-14.9-0.4-28.4-5.1-40.9-12.9c-12.5-7.8-22.9-18-32.7-28.9c-2.4-2.6-4.6-5.4-7-8.2C27.6,280.9,13.8,303.9,0,327
		c0.6,0.8,1.1,1.6,1.8,2.3c14.3,14.8,29.9,27.9,48.4,37.6c16.2,8.5,33.4,12.8,51,16.3c3.2,0.7,4.7,0,5.6-3.5
		c2.2-9,4.9-17.9,7.5-27.4c22.5,4,42,5,65.5-2.9C206.8,340.3,220,332,236.7,309.7z"/>
</g>
</svg>
